<svg xmlns="http://www.w3.org/2000/svg" viewBox="0 0 300 100" fill="none">
  <path
    d="M0 50
       Q25 15, 50 50
       Q75 85, 100 50
       Q125 15, 150 50
       Q175 85, 200 50
       Q225 15, 250 50
       Q275 85, 300 50"
    stroke="#F2F1F0"
    stroke-opacity="0.6"
    stroke-width="1.5"
    stroke-linecap="round"
  />
  <path
    d="M0 55
       Q25 25, 50 55
       Q75 85, 100 55
       Q125 25, 150 55
       Q175 85, 200 55
       Q225 25, 250 55
       Q275 85, 300 55"
    stroke="#F2F1F0"
    stroke-opacity="0.3"
    stroke-width="1"
    stroke-linecap="round"
  />
  <path
    d="M10 45
       Q35 20, 60 45
       Q85 70, 110 45
       Q135 20, 160 45
       Q185 70, 210 45
       Q235 20, 260 45
       Q285 70, 295 52"
    stroke="#F2F1F0"
    stroke-opacity="0.15"
    stroke-width="0.8"
    stroke-linecap="round"
  />
</svg>
